#!OML:ASF F:\VICON\USERDATA\INSTALL\rory3\rory3.ASF
:FULLY-SPECIFIED
:DEGREES
90
root 1.4536955183771734 17.93759032858022 53.464706326507056 -3.7599305531160727 2.2532657115417907 -6.1242223268463505
lfemur -18.094654026332258 -2.4014422620322127 -15.80635281869842
ltibia 35.277273277603854
lfoot -6.222278470500891 0.30468086153217344
ltoes -15.210073482574105
rfemur -5.421045405384209 1.8472748894551794 30.0297782695939
rtibia 36.72880292774764
rfoot -1.9862631269241087 -10.506697247630187
rtoes 5.4850357656609425
lowerback nan 0.2928771724184513 3.8803924947760233
upperback -0.4617590470477161 1.290042865377991 1.8001680158961597
thorax -5.923161306368791 0.6655320105227995 -0.5613652568484928
lowerneck -16.14560716515908 -3.9344969568734283 -1.6379529945886304
upperneck 21.770011479778418 -5.479294317942727 1.6739691320072079
head 9.789449202279839 -2.4488499397714567 0.11095731323737684
lclavicle -2.5716317702280045e-15 -2.780436874896939e-15
lhumerus -32.79523784113246 3.821332011841131 82.30908615828204
lradius 26.178137841651573
lwrist 10.824383564668185
lhand -29.895810768348724 18.280112677427017
lfingers nan
lthumb -3.0749231485786725 48.51699826024609
rclavicle -2.5332273659582156e-15 -2.7685715467185178e-15
rhumerus -29.437383154037285 -20.632462024749596 -75.31840604769255
rradius 32.66696718488336
rwrist 0.8039041439999401
rhand -17.49535886250337 nan
rfingers nan
rthumb 8.742741546704991 -7.283440885651104
91
root 1.427949562811813 17.93600342376558 52.7221587394232 -3.8111962550849983 2.4124622460413123 -6.14700692260787
lfemur -17.168196436169303 -2.5836254351738592 -16.31400275939483
ltibia 30.28884109724181
lfoot -6.555989240565465 -0.985502780825096
ltoes -14.693350507739659
rfemur -6.858917010034843 1.5245538071114333 29.64675513027145
rtibia 40.645647712130234
rfoot -1.8369756841851856 -11.1341896467275
rtoes 7.044070840135493
lowerback nan 0.29202256595891285 3.7446535516103454
upperback -0.4526718465084578 1.3197630054708671 1.7979377455132484
thorax -5.905797032886223 0.682557091644553 -0.6150002856571046
lowerneck -16.139324935425307 -3.945117977439493 -1.6931906965898247
upperneck 21.775106899151094 -5.504376312765642 1.8347052656190685
head 9.792005111018835 -2.451383460103649 0.1702684726485499
lclavicle -2.572138429547267e-15 -2.780782687552079e-15
lhumerus -32.098359616352745 3.338852142463428 82.20910132488969
lradius 26.704155769552088
lwrist 10.674261035250568
lhand -29.857144807635613 18.386590604930166
lfingers nan
lthumb -3.060237361590535 48.57383681436391
rclavicle -2.534997608726656e-15 -2.7700487649612077e-15
rhumerus -29.147149584344216 -20.159112031485073 -75.7038121517477
rradius 32.696742799771485
rwrist 1.103382799511032
rhand -17.484668054326523 nan
rfingers nan
rthumb 8.731892586475784 -7.209506841088195
92
root 1.4228158322140962 17.94036008462404 54.01349476463585 -3.8392851911312045 2.822398708310259 -5.446386297440937
lfemur -15.859591823839864 -2.832703662546262 -17.553336222112012
ltibia 26.878204631099504
lfoot -6.010633610335075 -1.5766775849302406
ltoes -14.926101947915075
rfemur -8.063762468370621 0.8250711990085857 28.629739067832674
rtibia 44.806673707758904
rfoot -2.105290682946083 -11.556893347780248
rtoes 8.000684631537963
lowerback nan 0.18662039956446105 3.1468482200585335
upperback -0.4209549709427853 1.1252178055300766 1.7497039892374104
thorax -5.91535553619408 0.59011567265156 -0.48811737334222194
lowerneck -16.192279624253903 -3.954208234060971 -1.7240764005355418
upperneck 21.725063437979077 -5.525092585802282 2.007793259106829
head 9.773584920083511 -2.4503045123513925 0.23452039777421668
lclavicle -2.573291012752889e-15 -2.7813797427309515e-15
lhumerus -31.28896949707689 2.785257587511053 82.1236557273324
lradius 27.235334499804413
lwrist 10.518572788918913
lhand -29.832694906330165 18.381202959206483
lfingers nan
lthumb -3.029566411124564 48.58896421452132
rclavicle -2.538408733439543e-15 -2.772244878873361e-15
rhumerus -28.97285472330959 -19.708417797974978 -76.00783965393653
rradius 32.72235486781041
rwrist 1.6075748239841472
rhand -17.464595129513665 nan
rfingers nan
rthumb 8.78456316360871 -6.985527252191523
93
root 1.3889838600959283 17.92337151259932 52.94202279769838 -4.084031342982555 2.9837014560952673 -4.530175220710441
lfemur -14.122116753326136 -3.0570513635888785 -18.971098648597213
ltibia 25.000835865004277
lfoot -6.8486363057016995 -2.9294859391375314
ltoes -13.194547639774257
rfemur -10.02690205154693 -0.15387916310173466 27.05043058461448
rtibia 49.16907047689953
rfoot -2.7911483138561985 -11.498958749740883
rtoes 8.627459183623014
lowerback nan 0.07374496107053304 2.3033633194267757
upperback -0.3577415306074038 0.8496827036572838 1.6329454542450592
thorax -5.926751813634395 0.4646205939979934 -0.19259587038196768
lowerneck -16.274197737540334 -3.9623148076235033 -1.7317780129317553
upperneck 21.63298143851295 -5.543061666469674 2.1832669794985176
head 9.744049358415209 -2.4457997369617304 0.2984423172671086
lclavicle -2.5746943489077965e-15 -2.7815177016140125e-15
lhumerus -30.378593228374953 2.1305223214946776 82.04086684979268
lradius 27.7661340181398
lwrist 10.272127436200483
lhand -29.748439720695064 18.426273643372845
lfingers nan
lthumb -2.9727563841130804 48.59539428311912
rclavicle -2.540865340618622e-15 -2.772324808257315e-15
rhumerus -29.01447291711823 -19.371450946913704 -76.2508851246869
rradius 32.748768575485315
rwrist 2.2697048010415255
rhand -17.463219101671466 nan
rfingers nan
rthumb 8.759338682191688 -6.947594513174049
94
root 1.380475179991687 17.905715966337812 53.74875904620791 -4.269780233533293 3.261237879287247 -3.0894090509597514
lfemur -11.93699963923793 -3.305789358374179 -20.71041232576361
ltibia 24.252138405485958
lfoot -7.9052334953503784 -3.683826883884542
ltoes -11.408690001589203
rfemur -11.779964425890947 -1.0959619167242916 25.15679999212025
rtibia 53.22415520079032
rfoot -3.7861668490069285 -10.943480115152276
rtoes 8.822662145715336
lowerback nan -0.12576859327350035 1.0821988801463227
upperback -0.27726160595174 0.37734700824666967 1.4417341307580627
thorax -5.946844550218455 0.22746133289863293 0.22341405937902237
lowerneck -16.36960179690381 -3.9635478143228906 -1.7221693388428387
upperneck 21.522179125598306 -5.547569921045074 2.3440181968042406
head 9.716771367996719 -2.4353834530833156 0.3562058135086993
lclavicle -2.5759634842962472e-15 -2.7809856969685143e-15
lhumerus -29.396280539420243 1.3764077282689806 81.93983602601881
lradius 28.27050598695854
lwrist 9.864620932913827
lhand -29.706510123852112 18.343146132020284
lfingers nan
lthumb -2.90551683747644 48.60161072486367
rclavicle -2.543051524547119e-15 -2.7707691412602586e-15
rhumerus -29.256641395583415 -19.13375633505114 -76.47444368825987
rradius 32.7644504038739
rwrist 2.843861275212962
rhand -17.461791510332983 nan
rfingers nan
rthumb 8.77782081373506 -6.919698176351827
95
root 1.3923475650906276 17.894417487452767 55.214196697628644 -4.298846668389591 3.6017394302330255 -1.5238524453120703
lfemur -9.399197965627092 -3.621120574611461 -22.535162090400647
ltibia 24.14459999155794
lfoot -9.243403060575398 -3.5631206979997527
ltoes -10.97509993553677
rfemur -15.315145250272153 -2.2295396318420995 22.597488633036544
rtibia 57.34240935276071
rfoot -4.918489025214468 -9.939264475355616
rtoes 8.290876163335742
lowerback nan -0.3705254578165392 -0.1726092195426283
upperback -0.20610070657353638 -0.1677286710268841 1.2438921118523785
thorax -5.975027727561936 -0.041184933924675676 0.7227392636103663
lowerneck -16.480999572599046 -3.953571344987108 -1.702210119293128
upperneck 21.408173314152844 -5.530018786747644 2.4714318408735094
head 9.698120025749038 -2.417774032001734 0.4030231513113826
lclavicle -2.5760778757715693e-15 -2.779338133309838e-15
lhumerus -28.383886686015227 0.5833397754559302 81.80505533868569
lradius 28.71553796212475
lwrist 9.301328071686807
lhand -29.648279109927724 18.331242028034797
lfingers nan
lthumb -2.83805025818327 48.630867966254186
rclavicle -2.5452773071083194e-15 -2.768129286173269e-15
rhumerus -29.61767064748053 -18.952073506506277 -76.6829903683961
rradius 32.76062842454323
rwrist 2.782824281089986
rhand -17.47340486529383 nan
rfingers nan
rthumb 8.722329914618227 -7.136595934909547
96
root 1.4168152045668596 17.89305672653821 56.87040745808389 -4.155426072711563 3.827975667882228 -0.3267073736894264
lfemur -6.714747547409124 -3.961024671629443 -23.986403101944266
ltibia 24.239072789829976
lfoot -10.854184180484314 -3.0693941979808845
ltoes -9.141716496439557
rfemur -18.355903437857915 -2.9176146093247137 21.122844188012373
rtibia 60.40521674656878
rfoot -6.0775450627179115 -8.825719341389968
rtoes 7.2212574985171765
lowerback nan -0.6365427655564229 -1.123892808581347
upperback -0.16823492820480357 -0.6796558943215285 1.1038016209054522
thorax -6.009379180349547 -0.2859400956533428 1.2444939113689877
lowerneck -16.60981161447562 -3.92765988322364 -1.6773840746400008
upperneck 21.302952576772487 -5.484212358872613 2.5481136106259212
head 9.688077545792225 -2.3926021342549553 0.43525223802522445
lclavicle -2.5744698955685204e-15 -2.776359677170072e-15
lhumerus -27.406095138839145 -0.13516512643454837 81.64898099718289
lradius 29.078648668078856
lwrist 8.68927190620366
lhand -29.644990966398684 18.261750902036106
lfingers nan
lthumb -2.778259331083285 48.6947262970008
rclavicle -2.546357005065091e-15 -2.763954747205352e-15
rhumerus -30.07589185675586 -18.867916832007573 -76.8654912433259
rradius 32.719705885010846
rwrist 2.0167573465906257
rhand -17.481178486287746 nan
rfingers nan
rthumb 8.74092748467148 -7.229212685824853
97
root 1.4545570958177612 17.902081332254742 59.01078651323037 -3.9235889964604613 3.7794497032070353 0.8028307102007064
lfemur -3.810769941216354 -4.253420141875053 -25.289990448302127
ltibia 24.07470240480822
lfoot -11.497426229639828 -2.035933237936235
ltoes -10.020818072202923
rfemur -21.47310767088522 -3.320482127653709 19.885559873618185
rtibia 61.82389242838682
rfoot -7.2043435434360505 -7.834426536321618
rtoes 5.882590805485359
lowerback nan -0.8813557741988655 -1.9644125600336106
upperback -0.15382282906363096 -1.1723853281797822 0.9910388668084769
thorax -6.037764516882151 -0.5294438852648009 1.7751149192507123
lowerneck -16.746289632087837 -3.8800264255873214 -1.6548047142450315
upperneck 21.22555306509882 -5.401220210001247 2.566365948640291
head 9.686710482851545 -2.3583338147819486 0.453567772600387
lclavicle -2.5726484876027515e-15 -2.773125568643636e-15
lhumerus -26.5791473795722 -0.733436115291338 81.4942354893709
lradius 29.363831193951132
lwrist 8.185947808197696
lhand -29.60687575043594 18.368543024272032
lfingers nan
lthumb -2.7227381401393393 48.824352784402116
rclavicle -2.5449807138592062e-15 -2.7580093928115813e-15
rhumerus -30.55250257267263 -18.911650667485105 -76.99531905414808
rradius 32.64677716684408
rwrist 1.4923466304802169
rhand -17.495092432559463 nan
rfingers nan
rthumb 8.706171583430377 -7.417590388887051
